<svg width="23" height="23" viewBox="0 0 23 23" fill="none" xmlns="http://www.w3.org/2000/svg">
<path d="M16.675 0.958496H8.05C6.51666 0.958496 4.98333 1.82891 4.21666 3.18288C3.92916 3.66645 4.12083 4.24672 4.6 4.53686C5.07916 4.827 5.65416 4.63357 5.94166 4.15001C6.325 3.37631 7.1875 2.89275 8.05 2.89275H16.675C18.0167 2.89275 19.1667 4.0533 19.1667 5.40727V16.7226V17.5931C19.1667 18.9471 18.0167 20.1076 16.675 20.1076H8.05C6.70833 20.1076 5.55833 18.9471 5.55833 17.5931V17.3029H6.325C6.9 17.3029 7.28333 16.9161 7.28333 16.3358C7.28333 15.7555 6.9 15.3686 6.325 15.3686H2.875C2.3 15.3686 1.91666 15.7555 1.91666 16.3358C1.91666 16.9161 2.3 17.3029 2.875 17.3029H3.64166V17.5931C3.64166 20.0109 5.65416 22.0418 8.05 22.0418H16.675C19.0708 22.0418 21.0833 20.0109 21.0833 17.5931V16.7226V5.40727C21.0833 2.98946 19.0708 0.958496 16.675 0.958496Z" fill="black"/>
<path d="M2.94345 7.66667H3.76488V13.4167C3.76488 13.9917 4.17559 14.375 4.79166 14.375C5.40774 14.375 5.81845 13.9917 5.81845 13.4167V7.66667H6.63991C7.25592 7.66667 7.66666 7.28333 7.66666 6.70833C7.66666 6.13333 7.25592 5.75 6.63991 5.75H2.94345C2.32738 5.75 1.91666 6.13333 1.91666 6.70833C1.91666 7.28333 2.32738 7.66667 2.94345 7.66667Z" fill="black"/>
</svg>
