<svg width="127" height="31" viewBox="0 0 127 31" fill="none" xmlns="http://www.w3.org/2000/svg">
<path d="M10.2273 18.4091H15.75L17.7443 20.9148L21.1193 24.75L25.517 30.0682H19.2273L16.108 26.4375L14.0114 23.4205L10.2273 18.4091ZM25.4659 15.0341C25.4659 17.9489 24.8991 20.4077 23.7656 22.4105C22.6321 24.4048 21.1023 25.9176 19.1761 26.9489C17.25 27.9716 15.1023 28.483 12.733 28.483C10.3466 28.483 8.19034 27.9673 6.2642 26.9361C4.34659 25.8963 2.82102 24.3793 1.6875 22.3849C0.5625 20.3821 0 17.9318 0 15.0341C0 12.1193 0.5625 9.66477 1.6875 7.67045C2.82102 5.66761 4.34659 4.15483 6.2642 3.1321C8.19034 2.10085 10.3466 1.58523 12.733 1.58523C15.1023 1.58523 17.25 2.10085 19.1761 3.1321C21.1023 4.15483 22.6321 5.66761 23.7656 7.67045C24.8991 9.66477 25.4659 12.1193 25.4659 15.0341ZM18.1534 15.0341C18.1534 13.4659 17.9446 12.1449 17.527 11.071C17.1179 9.98864 16.5085 9.17045 15.6989 8.61648C14.8977 8.05398 13.9091 7.77273 12.733 7.77273C11.5568 7.77273 10.5639 8.05398 9.75426 8.61648C8.95313 9.17045 8.34375 9.98864 7.92614 11.071C7.51705 12.1449 7.3125 13.4659 7.3125 15.0341C7.3125 16.6023 7.51705 17.9276 7.92614 19.0099C8.34375 20.0838 8.95313 20.902 9.75426 21.4645C10.5639 22.0185 11.5568 22.2955 12.733 22.2955C13.9091 22.2955 14.8977 22.0185 15.6989 21.4645C16.5085 20.902 17.1179 20.0838 17.527 19.0099C17.9446 17.9276 18.1534 16.6023 18.1534 15.0341Z" fill="white"/>
<path d="M41.625 19.5341V8.48864H48.6818V28.125H41.983V24.392H41.7784C41.3523 25.6449 40.6065 26.625 39.5412 27.3324C38.4759 28.0312 37.2102 28.3807 35.7443 28.3807C34.3722 28.3807 33.1705 28.0653 32.1392 27.4347C31.1165 26.804 30.3196 25.9347 29.7486 24.8267C29.1861 23.7187 28.9006 22.4489 28.892 21.017V8.48864H35.9489V19.5341C35.9574 20.5057 36.2045 21.2685 36.6903 21.8224C37.1847 22.3764 37.875 22.6534 38.7614 22.6534C39.3494 22.6534 39.8565 22.5298 40.2827 22.2827C40.7173 22.027 41.0497 21.669 41.2798 21.2088C41.5185 20.7401 41.6335 20.1818 41.625 19.5341Z" fill="white"/>
<path d="M52.271 28.125V8.48864H59.3278V28.125H52.271ZM55.7994 6.44318C54.8448 6.44318 54.0266 6.12784 53.3448 5.49716C52.663 4.86648 52.3221 4.10795 52.3221 3.22159C52.3221 2.33523 52.663 1.5767 53.3448 0.946022C54.0266 0.315341 54.8448 0 55.7994 0C56.7624 0 57.5806 0.315341 58.2539 0.946022C58.9357 1.5767 59.2766 2.33523 59.2766 3.22159C59.2766 4.10795 58.9357 4.86648 58.2539 5.49716C57.5806 6.12784 56.7624 6.44318 55.7994 6.44318Z" fill="white"/>
<path d="M63.1278 28.125V24.2386L71.7188 13.9602V13.858H63.4347V8.48864H80.054V12.7841L72.2301 22.6534V22.7557H80.3608V28.125H63.1278Z" fill="white"/>
<path d="M84.4677 28.125V24.2386L93.0586 13.9602V13.858H84.7745V8.48864H101.394V12.7841L93.57 22.6534V22.7557H101.701V28.125H84.4677Z" fill="white"/>
<path d="M105.603 28.125V8.48864H112.455V12.2216H112.66C113.018 10.8409 113.585 9.83097 114.36 9.19176C115.144 8.55256 116.06 8.23295 117.109 8.23295C117.415 8.23295 117.718 8.25852 118.016 8.30966C118.323 8.35227 118.617 8.41619 118.898 8.50142V14.5227C118.549 14.4034 118.119 14.3139 117.607 14.2543C117.096 14.1946 116.657 14.1648 116.29 14.1648C115.6 14.1648 114.978 14.3224 114.424 14.6378C113.879 14.9446 113.448 15.3793 113.133 15.9418C112.817 16.4957 112.66 17.1477 112.66 17.8977V28.125H105.603Z" fill="white"/>
<path d="M122.798 28.5341C121.809 28.5341 120.961 28.1889 120.254 27.4986C119.555 26.7997 119.21 25.9517 119.218 24.9545C119.21 23.983 119.555 23.152 120.254 22.4616C120.961 21.7713 121.809 21.4261 122.798 21.4261C123.735 21.4261 124.562 21.7713 125.278 22.4616C126.002 23.152 126.369 23.983 126.377 24.9545C126.369 25.6193 126.194 26.2244 125.853 26.7699C125.521 27.3068 125.086 27.7372 124.549 28.0611C124.012 28.3764 123.428 28.5341 122.798 28.5341Z" fill="white"/>
</svg>
